# xmcd
#
# Track frame offsets: 
#        150
#        14807
#        32615
#        49815
#        65617
#        81300
#        98170
#        112055
#        126882
#        140565
#        156395
#        171634
#        187932
#
# Disc length: 2707 seconds
#
# Revision: 1
# Processed by: cddbd v1.5.2PL0 Copyright (c) Steve Scherf et al.
# Submitted via: ExactAudioCopyFreeDBPlugin 1.0
#
DISCID=c00a910d
DTITLE=Tom Astor - Hautnah
DYEAR=2000
DGENRE=Country
TTITLE0=Ich will zurück zu mir
TTITLE1=Immer vorwärts
TTITLE2=Worauf willst du noch warten
TTITLE3=Der Wind wird sich bald wieder drehen
TTITLE4=Bist Du die Frau ?
TTITLE5=Deutscher Traum
TTITLE6=Hautnah
TTITLE7=Wir sind wie Tag und Nacht
TTITLE8=Spendensumpf Rock
TTITLE9=Darum sag ich Danke für mein Leben
TTITLE10=Geisterreiter
TTITLE11=Liebe ist stärker als Hass und Gewalt
TTITLE12=Es ist noch lange nicht genug
EXTD=
EXTT0=
EXTT1=
EXTT2=
EXTT3=
EXTT4=
EXTT5=
EXTT6=
EXTT7=
EXTT8=
EXTT9=
EXTT10=
EXTT11=
EXTT12=
PLAYORDER=
